<svg width="32" height="32" viewBox="20.5 20.5 69 69" fill="none" xmlns="http://www.w3.org/2000/svg">
  <rect x="22" y="22" width="66" height="66" rx="18" fill="#141820" stroke="#C89422" stroke-width="3"/>
  <path d="M42 65c-7-3-11-9-11-18 0-12 9-21 23-21 7 0 13 2 17 5l-7 11c-3-2-6-3-10-3-6 0-10 4-10 9s4 8 11 8h5v13h-6c-4 0-8-.8-12-2Z" fill="#F5F7FA"/>
  <path d="M63 80c-8 0-15-2-20-7l7-11c4 3 8 5 13 5 5 0 8-2 8-5 0-4-4-5-10-7-10-3-19-7-19-18 0-10 8-17 21-17 7 0 13 2 18 6l-7 11c-4-3-7-4-11-4-5 0-7 2-7 5 0 3 4 5 10 7 10 3 19 7 19 18 0 10-8 17-22 17Z" fill="#C89422"/>
</svg>
